staticP12_grf.mot
version=1
nRows=12
nColumns=19
inDegrees=yes
endheader
time	1_ground_force_vx	1_ground_force_vy	1_ground_force_vz	1_ground_force_px	1_ground_force_py	1_ground_force_pz	1_ground_torque_x	1_ground_torque_y	1_ground_torque_z	2_ground_force_vx	2_ground_force_vy	2_ground_force_vz	2_ground_force_px	2_ground_force_py	2_ground_force_pz	2_ground_torque_x	2_ground_torque_y	2_ground_torque_z
            0.010000	            0.013786	            0.366970	           -0.020392	            0.300343	            0.002779	           -0.250042	            0.083574	           -0.004076	           -0.074811	           -0.035125	            0.472890	            0.028743	            0.905879	            0.000867	           -0.251058	            0.193349	           -0.000541	            0.068077
            0.011000	            0.034973	           -0.031370	           -0.044501	            0.300343	            0.002779	           -0.250042	           -0.100462	            0.010612	           -0.053908	           -0.021257	            0.071521	           -0.026607	            0.905879	            0.000867	           -0.251058	           -0.025072	            0.001304	            0.089450
            0.012000	           -0.003246	           -0.032801	           -0.021512	            0.300343	            0.002779	           -0.250042	           -0.100154	            0.006443	            0.153419	           -0.006719	           -0.168346	           -0.004370	            0.905879	            0.000867	           -0.251058	           -0.075687	            0.007878	           -0.014191
            0.013000	            0.002109	           -0.589192	           -0.030811	            0.300343	            0.002779	           -0.250042	           -0.083807	           -0.000553	           -0.074407	            0.002337	            0.232327	           -0.003005	            0.905879	            0.000867	           -0.251058	            0.042032	           -0.002056	           -0.035534
            0.014000	            0.019741	           -0.032088	           -0.006218	            0.300343	            0.002779	           -0.250042	           -0.033342	            0.005151	           -0.053810	           -0.038196	           -0.407605	            0.010160	            0.905879	            0.000867	           -0.251058	            0.041959	            0.007107	            0.089460
            0.015000	            0.025660	           -0.431266	           -0.030376	            0.300343	            0.002779	           -0.250042	            0.016983	            0.003598	            0.008600	            0.009183	           -0.007290	            0.003813	            0.905879	            0.000867	           -0.251058	            0.058579	            0.001578	           -0.056003
            0.016000	           -0.011853	           -0.271313	           -0.006921	            0.300343	            0.002779	           -0.250042	            0.016847	           -0.003065	           -0.032983	            0.008864	           -0.087797	           -0.027237	            0.905879	            0.000867	           -0.251058	            0.008255	            0.001491	            0.006469
            0.017000	            0.012092	           -0.031006	           -0.029167	            0.300343	            0.002779	           -0.250042	           -0.067194	            0.005552	           -0.012568	            0.011149	            0.550459	            0.028971	            0.905879	            0.000867	           -0.251058	           -0.159522	            0.001206	           -0.076568
            0.018000	           -0.026397	           -0.111845	           -0.021739	            0.300343	            0.002779	           -0.250042	           -0.016690	           -0.008820	            0.049768	            0.002036	            0.151405	            0.004356	            0.905879	            0.000867	           -0.251058	           -0.041876	            0.005671	            0.027082
            0.019000	            0.012503	            0.048610	           -0.021331	            0.300343	            0.002779	           -0.250042	           -0.117383	           -0.010557	           -0.033340	           -0.014645	           -0.247288	            0.018385	            0.905879	            0.000867	           -0.251058	            0.041785	            0.010404	           -0.035128
            0.020000	            0.021115	            0.286636	           -0.028257	            0.300343	            0.002779	           -0.250042	            0.000029	            0.000210	            0.070301	           -0.022080	           -0.166929	           -0.027326	            0.905879	            0.000867	           -0.251058	            0.058682	            0.013547	           -0.056122
            0.021000	            0.018784	           -0.271670	           -0.006910	            0.300343	            0.002779	           -0.250042	            0.050306	            0.001291	            0.049894	            0.031073	           -0.328115	            0.002595	            0.905879	            0.000867	           -0.251058	            0.025154	            0.002684	            0.110330
